SplineFontDB: 3.0
FontName: Boxy-Bold
FullName: Boxy Bold Regular
FamilyName: Boxy Bold
Weight: Book
Copyright: Copyright william.thompsonj 2013
Version: 1.0
ItalicAngle: 0
UnderlinePosition: 127
UnderlineWidth: 51
Ascent: 819
Descent: 205
sfntRevision: 0x00010000
LayerCount: 2
Layer: 0 1 "Back"  1
Layer: 1 1 "Fore"  0
XUID: [1021 564 741011308 10854902]
FSType: 4
OS2Version: 2
OS2_WeightWidthSlopeOnly: 0
OS2_UseTypoMetrics: 1
CreationTime: 1387897626
ModificationTime: 1398147540
PfmFamily: 81
TTFWeight: 400
TTFWidth: 5
LineGap: 0
VLineGap: 0
Panose: 0 0 4 0 0 0 0 0 0 0
OS2TypoAscent: 896
OS2TypoAOffset: 0
OS2TypoDescent: -256
OS2TypoDOffset: 0
OS2TypoLinegap: 0
OS2WinAscent: 896
OS2WinAOffset: 0
OS2WinDescent: 256
OS2WinDOffset: 0
HheadAscent: 896
HheadAOffset: 0
HheadDescent: -256
HheadDOffset: 0
OS2SubXSize: 512
OS2SubYSize: 512
OS2SubXOff: 0
OS2SubYOff: -128
OS2SupXSize: 512
OS2SupYSize: 512
OS2SupXOff: 0
OS2SupYOff: 512
OS2StrikeYSize: 51
OS2StrikeYPos: 204
OS2Vendor: 'FSTR'
OS2CodePages: 00000001.00000000
OS2UnicodeRanges: 80000001.00000000.00000000.00000000
DEI: 91125
ShortTable: maxp 16
  1
  0
  102
  48
  5
  0
  0
  2
  0
  0
  0
  0
  0
  0
  0
  0
EndShort
LangName: 1033 "" "" "Regular" "FontStruct Boxy Bold" "" "Version 1.0" "" "FontStruct is a trademark of FSI FontShop International GmbH" "http://fontstruct.com" "william.thompsonj" "+IBoAxAD6-Boxy Bold+IBoAxAD5 was built with FontStruct+AAoA" "http://www.fontshop.com" "http://fontstruct.com/fontstructions/show/855993" "Creative Commons Attribution" "http://creativecommons.org/licenses/by/3.0/" "" "" "" "" "Five big quacking zephyrs jolt my wax bed" 
Encoding: UnicodeBmp
UnicodeInterp: none
NameList: Adobe Glyph List
DisplaySize: -24
AntiAlias: 1
FitToEm: 1
WinInfo: 30 30 17
BeginChars: 65539 102

StartChar: .notdef
Encoding: 65536 -1 0
Width: 352
Flags: W
LayerCount: 2
Fore
SplineSet
448 127 m 1,0,-1
 448 269 l 1,1,-1
 305 269 l 1,2,-1
 305 127 l 1,3,-1
 448 127 l 1,0,-1
590 293 m 1,4,-1
 590 436 l 1,5,-1
 305 436 l 1,6,-1
 305 293 l 1,7,-1
 590 293 l 1,4,-1
448 459 m 1,8,-1
 448 602 l 1,9,-1
 305 602 l 1,10,-1
 305 459 l 1,11,-1
 448 459 l 1,8,-1
590 626 m 1,12,-1
 590 767 l 1,13,-1
 448 767 l 2,14,15
 388 767 388 767 347 726 c 0,16,17
 305 684 305 684 305 626 c 1,18,-1
 590 626 l 1,12,-1
0 0 m 1,19,-1
 0 896 l 1,20,-1
 896 896 l 1,21,-1
 896 0 l 1,22,-1
 0 0 l 1,19,-1
EndSplineSet
EndChar

StartChar: exclam
Encoding: 33 33 4
Width: 480
Flags: W
LayerCount: 2
Fore
SplineSet
384 128 m 1,0,-1
 384 256 l 1,1,-1
 128 256 l 1,2,-1
 128 128 l 1,3,-1
 384 128 l 1,0,-1
384 384 m 1,4,-1
 128 384 l 1,5,-1
 128 768 l 1,6,-1
 384 768 l 1,7,-1
 384 384 l 1,4,-1
524 -12 m 1,8,-1
 -12 -12 l 1,9,-1
 -12 396 l 1,10,-1
 524 396 l 1,11,-1
 524 -12 l 1,8,-1
524 244 m 1,12,-1
 524 908 l 1,13,-1
 -12 908 l 1,14,-1
 -12 244 l 1,15,-1
 524 244 l 1,12,-1
EndSplineSet
EndChar

StartChar: quotedbl
Encoding: 34 34 5
Width: 608
Flags: W
LayerCount: 2
Fore
SplineSet
256 384 m 1,0,-1
 256 768 l 1,1,-1
 128 768 l 1,2,-1
 128 384 l 1,3,-1
 256 384 l 1,0,-1
512 384 m 1,4,-1
 384 384 l 1,5,-1
 384 768 l 1,6,-1
 512 768 l 1,7,-1
 512 384 l 1,4,-1
396 244 m 1,8,-1
 -12 244 l 1,9,-1
 -12 908 l 1,10,-1
 396 908 l 1,11,-1
 396 244 l 1,8,-1
652 244 m 1,12,-1
 652 908 l 1,13,-1
 244 908 l 1,14,-1
 244 244 l 1,15,-1
 652 244 l 1,12,-1
EndSplineSet
EndChar

StartChar: numbersign
Encoding: 35 35 6
Width: 1120
Flags: W
LayerCount: 2
Fore
SplineSet
512 384 m 1,0,-1
 512 512 l 1,1,-1
 640 512 l 1,2,-1
 640 384 l 1,3,-1
 512 384 l 1,0,-1
896 128 m 1,4,-1
 896 256 l 1,5,-1
 1024 256 l 1,6,-1
 1024 384 l 1,7,-1
 896 384 l 1,8,-1
 896 512 l 1,9,-1
 1024 512 l 1,10,-1
 1024 640 l 1,11,-1
 896 640 l 1,12,-1
 896 768 l 1,13,-1
 640 768 l 1,14,-1
 640 640 l 1,15,-1
 512 640 l 1,16,-1
 512 768 l 1,17,-1
 256 768 l 1,18,-1
 256 640 l 1,19,-1
 128 640 l 1,20,-1
 128 512 l 1,21,-1
 256 512 l 1,22,-1
 256 384 l 1,23,-1
 128 384 l 1,24,-1
 128 256 l 1,25,-1
 256 256 l 1,26,-1
 256 128 l 1,27,-1
 512 128 l 1,28,-1
 512 256 l 1,29,-1
 640 256 l 1,30,-1
 640 128 l 1,31,-1
 896 128 l 1,4,-1
116 -12 m 1,32,-1
 116 116 l 1,33,-1
 -12 116 l 1,34,-1
 -12 780 l 1,35,-1
 116 780 l 1,36,-1
 116 908 l 1,37,-1
 1036 908 l 1,38,-1
 1036 780 l 1,39,-1
 1164 780 l 1,40,-1
 1164 116 l 1,41,-1
 1036 116 l 1,42,-1
 1036 -12 l 1,43,-1
 116 -12 l 1,32,-1
EndSplineSet
EndChar

StartChar: dollar
Encoding: 36 36 7
Width: 864
Flags: W
LayerCount: 2
Fore
SplineSet
512 256 m 1,0,-1
 512 384 l 1,1,-1
 640 384 l 1,2,-1
 640 256 l 1,3,-1
 512 256 l 1,0,-1
256 512 m 1,4,-1
 256 640 l 1,5,-1
 384 640 l 1,6,-1
 384 512 l 1,7,-1
 256 512 l 1,4,-1
768 128 m 1,8,-1
 768 512 l 1,9,-1
 512 512 l 1,10,-1
 512 640 l 1,11,-1
 768 640 l 1,12,-1
 768 768 l 1,13,-1
 128 768 l 1,14,-1
 128 384 l 1,15,-1
 384 384 l 1,16,-1
 384 256 l 1,17,-1
 128 256 l 1,18,-1
 128 128 l 1,19,-1
 768 128 l 1,8,-1
-12 908 m 1,20,-1
 908 908 l 1,21,-1
 908 -12 l 1,22,-1
 -12 -12 l 1,23,-1
 -12 908 l 1,20,-1
EndSplineSet
EndChar

StartChar: percent
Encoding: 37 37 8
Width: 1248
Flags: W
LayerCount: 2
Fore
SplineSet
896 256 m 1,0,-1
 896 384 l 1,1,-1
 1024 384 l 1,2,-1
 1024 256 l 1,3,-1
 896 256 l 1,0,-1
256 512 m 1,4,-1
 256 640 l 1,5,-1
 384 640 l 1,6,-1
 384 512 l 1,7,-1
 256 512 l 1,4,-1
1152 128 m 1,8,-1
 1152 512 l 1,9,-1
 768 512 l 1,10,-1
 768 640 l 1,11,-1
 896 640 l 1,12,-1
 896 768 l 1,13,-1
 768 768 l 1,14,-1
 768 640 l 1,15,-1
 640 640 l 1,16,-1
 640 512 l 1,17,-1
 512 512 l 1,18,-1
 512 768 l 1,19,-1
 128 768 l 1,20,-1
 128 384 l 1,21,-1
 512 384 l 1,22,-1
 512 256 l 1,23,-1
 384 256 l 1,24,-1
 384 128 l 1,25,-1
 512 128 l 1,26,-1
 512 256 l 1,27,-1
 640 256 l 1,28,-1
 640 384 l 1,29,-1
 768 384 l 1,30,-1
 768 128 l 1,31,-1
 1152 128 l 1,8,-1
244 -12 m 1,32,-1
 244 244 l 1,33,-1
 -12 244 l 1,34,-1
 -12 908 l 1,35,-1
 1036 908 l 1,36,-1
 1036 652 l 1,37,-1
 1292 652 l 1,38,-1
 1292 -12 l 1,39,-1
 244 -12 l 1,32,-1
EndSplineSet
EndChar

StartChar: ampersand
Encoding: 38 38 9
Width: 1120
Flags: W
LayerCount: 2
Fore
SplineSet
384 256 m 1,0,-1
 384 384 l 1,1,-1
 512 384 l 1,2,-1
 512 256 l 1,3,-1
 384 256 l 1,0,-1
384 512 m 1,4,-1
 384 640 l 1,5,-1
 512 640 l 1,6,-1
 512 512 l 1,7,-1
 384 512 l 1,4,-1
1024 128 m 1,8,-1
 1024 256 l 1,9,-1
 896 256 l 1,10,-1
 896 384 l 1,11,-1
 1024 384 l 1,12,-1
 1024 512 l 1,13,-1
 896 512 l 1,14,-1
 896 384 l 1,15,-1
 640 384 l 1,16,-1
 640 512 l 1,17,-1
 768 512 l 1,18,-1
 768 768 l 1,19,-1
 128 768 l 1,20,-1
 128 512 l 1,21,-1
 256 512 l 1,22,-1
 256 384 l 1,23,-1
 128 384 l 1,24,-1
 128 128 l 1,25,-1
 640 128 l 1,26,-1
 640 256 l 1,27,-1
 768 256 l 1,28,-1
 768 128 l 1,29,-1
 1024 128 l 1,8,-1
-12 -12 m 1,30,-1
 -12 908 l 1,31,-1
 908 908 l 1,32,-1
 908 652 l 1,33,-1
 1164 652 l 1,34,-1
 1164 -12 l 1,35,-1
 -12 -12 l 1,30,-1
EndSplineSet
EndChar

StartChar: quotesingle
Encoding: 39 39 10
Width: 608
Flags: W
LayerCount: 2
Fore
SplineSet
384 384 m 1,0,-1
 384 512 l 1,1,-1
 512 512 l 1,2,-1
 512 768 l 1,3,-1
 256 768 l 1,4,-1
 256 512 l 1,5,-1
 128 512 l 1,6,-1
 128 384 l 1,7,-1
 384 384 l 1,0,-1
524 372 m 1,8,-1
 524 244 l 1,9,-1
 -12 244 l 1,10,-1
 -12 652 l 1,11,-1
 116 652 l 1,12,-1
 116 908 l 1,13,-1
 652 908 l 1,14,-1
 652 372 l 1,15,-1
 524 372 l 1,8,-1
EndSplineSet
EndChar

StartChar: parenleft
Encoding: 40 40 11
Width: 608
Flags: W
LayerCount: 2
Fore
SplineSet
512 128 m 1,0,-1
 512 256 l 1,1,-1
 384 256 l 1,2,-1
 384 640 l 1,3,-1
 512 640 l 1,4,-1
 512 768 l 1,5,-1
 256 768 l 1,6,-1
 256 640 l 1,7,-1
 128 640 l 1,8,-1
 128 256 l 1,9,-1
 256 256 l 1,10,-1
 256 128 l 1,11,-1
 512 128 l 1,0,-1
652 -12 m 1,12,-1
 116 -12 l 1,13,-1
 116 116 l 1,14,-1
 -12 116 l 1,15,-1
 -12 780 l 1,16,-1
 116 780 l 1,17,-1
 116 908 l 1,18,-1
 652 908 l 1,19,-1
 652 500 l 1,20,-1
 524 500 l 1,21,-1
 524 396 l 1,22,-1
 652 396 l 1,23,-1
 652 -12 l 1,12,-1
EndSplineSet
EndChar

StartChar: parenright
Encoding: 41 41 12
Width: 608
Flags: W
LayerCount: 2
Fore
SplineSet
384 128 m 1,0,-1
 384 256 l 1,1,-1
 512 256 l 1,2,-1
 512 640 l 1,3,-1
 384 640 l 1,4,-1
 384 768 l 1,5,-1
 128 768 l 1,6,-1
 128 640 l 1,7,-1
 256 640 l 1,8,-1
 256 256 l 1,9,-1
 128 256 l 1,10,-1
 128 128 l 1,11,-1
 384 128 l 1,0,-1
524 116 m 1,12,-1
 524 -12 l 1,13,-1
 -12 -12 l 1,14,-1
 -12 396 l 1,15,-1
 116 396 l 1,16,-1
 116 500 l 1,17,-1
 -12 500 l 1,18,-1
 -12 908 l 1,19,-1
 524 908 l 1,20,-1
 524 780 l 1,21,-1
 652 780 l 1,22,-1
 652 116 l 1,23,-1
 524 116 l 1,12,-1
EndSplineSet
EndChar

StartChar: asterisk
Encoding: 42 42 13
Width: 736
Flags: W
LayerCount: 2
Fore
SplineSet
640 256 m 1,0,-1
 640 384 l 1,1,-1
 512 384 l 1,2,-1
 512 512 l 1,3,-1
 640 512 l 1,4,-1
 640 640 l 1,5,-1
 512 640 l 1,6,-1
 512 768 l 1,7,-1
 256 768 l 1,8,-1
 256 640 l 1,9,-1
 128 640 l 1,10,-1
 128 512 l 1,11,-1
 256 512 l 1,12,-1
 256 384 l 1,13,-1
 128 384 l 1,14,-1
 128 256 l 1,15,-1
 256 256 l 1,16,-1
 256 384 l 1,17,-1
 512 384 l 1,18,-1
 512 256 l 1,19,-1
 640 256 l 1,0,-1
-12 780 m 1,20,-1
 116 780 l 1,21,-1
 116 908 l 1,22,-1
 652 908 l 1,23,-1
 652 780 l 1,24,-1
 780 780 l 1,25,-1
 780 116 l 1,26,-1
 -12 116 l 1,27,-1
 -12 780 l 1,20,-1
EndSplineSet
EndChar

StartChar: plus
Encoding: 43 43 14
Width: 992
Flags: W
LayerCount: 2
Fore
SplineSet
640 128 m 1,0,-1
 640 384 l 1,1,-1
 896 384 l 1,2,-1
 896 512 l 1,3,-1
 640 512 l 1,4,-1
 640 768 l 1,5,-1
 384 768 l 1,6,-1
 384 512 l 1,7,-1
 128 512 l 1,8,-1
 128 384 l 1,9,-1
 384 384 l 1,10,-1
 384 128 l 1,11,-1
 640 128 l 1,0,-1
780 -12 m 1,12,-1
 244 -12 l 1,13,-1
 244 244 l 1,14,-1
 -12 244 l 1,15,-1
 -12 652 l 1,16,-1
 244 652 l 1,17,-1
 244 908 l 1,18,-1
 780 908 l 1,19,-1
 780 652 l 1,20,-1
 1036 652 l 1,21,-1
 1036 244 l 1,22,-1
 780 244 l 1,23,-1
 780 -12 l 1,12,-1
EndSplineSet
EndChar

StartChar: comma
Encoding: 44 44 15
Width: 608
Flags: W
LayerCount: 2
Fore
SplineSet
384 0 m 1,0,-1
 384 128 l 1,1,-1
 512 128 l 1,2,-1
 512 384 l 1,3,-1
 256 384 l 1,4,-1
 256 128 l 1,5,-1
 128 128 l 1,6,-1
 128 0 l 1,7,-1
 384 0 l 1,0,-1
524 -12 m 1,8,-1
 524 -140 l 1,9,-1
 -12 -140 l 1,10,-1
 -12 268 l 1,11,-1
 116 268 l 1,12,-1
 116 524 l 1,13,-1
 652 524 l 1,14,-1
 652 -12 l 1,15,-1
 524 -12 l 1,8,-1
EndSplineSet
EndChar

StartChar: hyphen
Encoding: 45 45 16
Width: 736
Flags: W
LayerCount: 2
Fore
SplineSet
640 384 m 1,0,-1
 640 512 l 1,1,-1
 128 512 l 1,2,-1
 128 384 l 1,3,-1
 640 384 l 1,0,-1
780 244 m 1,4,-1
 -12 244 l 1,5,-1
 -12 652 l 1,6,-1
 780 652 l 1,7,-1
 780 244 l 1,4,-1
EndSplineSet
EndChar

StartChar: period
Encoding: 46 46 17
Width: 480
Flags: W
LayerCount: 2
Fore
SplineSet
384 128 m 1,0,-1
 384 384 l 1,1,-1
 128 384 l 1,2,-1
 128 128 l 1,3,-1
 384 128 l 1,0,-1
524 -12 m 1,4,-1
 -12 -12 l 1,5,-1
 -12 524 l 1,6,-1
 524 524 l 1,7,-1
 524 -12 l 1,4,-1
EndSplineSet
EndChar

StartChar: slash
Encoding: 47 47 18
Width: 736
Flags: W
LayerCount: 2
Fore
SplineSet
384 128 m 1,0,-1
 384 384 l 1,1,-1
 512 384 l 1,2,-1
 512 512 l 1,3,-1
 640 512 l 1,4,-1
 640 768 l 1,5,-1
 384 768 l 1,6,-1
 384 512 l 1,7,-1
 256 512 l 1,8,-1
 256 384 l 1,9,-1
 128 384 l 1,10,-1
 128 128 l 1,11,-1
 384 128 l 1,0,-1
524 -12 m 1,12,-1
 -12 -12 l 1,13,-1
 -12 524 l 1,14,-1
 116 524 l 1,15,-1
 116 652 l 1,16,-1
 244 652 l 1,17,-1
 244 908 l 1,18,-1
 780 908 l 1,19,-1
 780 372 l 1,20,-1
 652 372 l 1,21,-1
 652 244 l 1,22,-1
 524 244 l 1,23,-1
 524 -12 l 1,12,-1
EndSplineSet
EndChar

StartChar: zero
Encoding: 48 48 19
Width: 736
Flags: W
LayerCount: 2
Fore
SplineSet
320 256 m 1,0,-1
 320 640 l 1,1,-1
 448 640 l 1,2,-1
 448 256 l 1,3,-1
 320 256 l 1,0,-1
640 128 m 1,4,-1
 640 768 l 1,5,-1
 128 768 l 1,6,-1
 128 128 l 1,7,-1
 640 128 l 1,4,-1
780 -12 m 1,8,-1
 -12 -12 l 1,9,-1
 -12 908 l 1,10,-1
 780 908 l 1,11,-1
 780 -12 l 1,8,-1
EndSplineSet
EndChar

StartChar: one
Encoding: 49 49 20
Width: 736
Flags: W
LayerCount: 2
Fore
SplineSet
640 128 m 1,0,-1
 640 256 l 1,1,-1
 512 256 l 1,2,-1
 512 768 l 1,3,-1
 128 768 l 1,4,-1
 128 640 l 1,5,-1
 256 640 l 1,6,-1
 256 256 l 1,7,-1
 128 256 l 1,8,-1
 128 128 l 1,9,-1
 640 128 l 1,0,-1
780 -12 m 1,10,-1
 -12 -12 l 1,11,-1
 -12 396 l 1,12,-1
 116 396 l 1,13,-1
 116 500 l 1,14,-1
 -12 500 l 1,15,-1
 -12 908 l 1,16,-1
 652 908 l 1,17,-1
 652 396 l 1,18,-1
 780 396 l 1,19,-1
 780 -12 l 1,10,-1
EndSplineSet
EndChar

StartChar: two
Encoding: 50 50 21
Width: 864
Flags: W
LayerCount: 2
Fore
SplineSet
768 128 m 1,0,-1
 768 256 l 1,1,-1
 512 256 l 1,2,-1
 512 384 l 1,3,-1
 768 384 l 1,4,-1
 768 768 l 1,5,-1
 128 768 l 1,6,-1
 128 512 l 1,7,-1
 256 512 l 1,8,-1
 256 640 l 1,9,-1
 512 640 l 1,10,-1
 512 512 l 1,11,-1
 384 512 l 1,12,-1
 384 384 l 1,13,-1
 256 384 l 1,14,-1
 256 256 l 1,15,-1
 128 256 l 1,16,-1
 128 128 l 1,17,-1
 768 128 l 1,0,-1
908 -12 m 1,18,-1
 -12 -12 l 1,19,-1
 -12 908 l 1,20,-1
 908 908 l 1,21,-1
 908 -12 l 1,18,-1
EndSplineSet
EndChar

StartChar: three
Encoding: 51 51 22
Width: 864
Flags: W
LayerCount: 2
Fore
SplineSet
768 128 m 1,0,-1
 768 768 l 1,1,-1
 128 768 l 1,2,-1
 128 640 l 1,3,-1
 512 640 l 1,4,-1
 512 512 l 1,5,-1
 256 512 l 1,6,-1
 256 384 l 1,7,-1
 512 384 l 1,8,-1
 512 256 l 1,9,-1
 128 256 l 1,10,-1
 128 128 l 1,11,-1
 768 128 l 1,0,-1
908 -12 m 1,12,-1
 -12 -12 l 1,13,-1
 -12 396 l 1,14,-1
 116 396 l 1,15,-1
 116 500 l 1,16,-1
 -12 500 l 1,17,-1
 -12 908 l 1,18,-1
 908 908 l 1,19,-1
 908 -12 l 1,12,-1
EndSplineSet
EndChar

StartChar: four
Encoding: 52 52 23
Width: 864
Flags: W
LayerCount: 2
Fore
SplineSet
768 128 m 1,0,-1
 768 768 l 1,1,-1
 512 768 l 1,2,-1
 512 512 l 1,3,-1
 384 512 l 1,4,-1
 384 768 l 1,5,-1
 128 768 l 1,6,-1
 128 384 l 1,7,-1
 512 384 l 1,8,-1
 512 128 l 1,9,-1
 768 128 l 1,0,-1
908 908 m 1,10,-1
 908 -12 l 1,11,-1
 372 -12 l 1,12,-1
 372 244 l 1,13,-1
 -12 244 l 1,14,-1
 -12 908 l 1,15,-1
 908 908 l 1,10,-1
EndSplineSet
EndChar

StartChar: five
Encoding: 53 53 24
Width: 864
Flags: W
LayerCount: 2
Fore
SplineSet
768 128 m 1,0,-1
 768 512 l 1,1,-1
 384 512 l 1,2,-1
 384 640 l 1,3,-1
 768 640 l 1,4,-1
 768 768 l 1,5,-1
 128 768 l 1,6,-1
 128 384 l 1,7,-1
 512 384 l 1,8,-1
 512 256 l 1,9,-1
 128 256 l 1,10,-1
 128 128 l 1,11,-1
 768 128 l 1,0,-1
-12 908 m 1,12,-1
 908 908 l 1,13,-1
 908 -12 l 1,14,-1
 -12 -12 l 1,15,-1
 -12 908 l 1,12,-1
EndSplineSet
EndChar

StartChar: six
Encoding: 54 54 25
Width: 864
Flags: W
LayerCount: 2
Fore
SplineSet
384 256 m 1,0,-1
 384 384 l 1,1,-1
 512 384 l 1,2,-1
 512 256 l 1,3,-1
 384 256 l 1,0,-1
768 128 m 1,4,-1
 768 512 l 1,5,-1
 384 512 l 1,6,-1
 384 640 l 1,7,-1
 768 640 l 1,8,-1
 768 768 l 1,9,-1
 128 768 l 1,10,-1
 128 128 l 1,11,-1
 768 128 l 1,4,-1
908 -12 m 1,12,-1
 -12 -12 l 1,13,-1
 -12 908 l 1,14,-1
 908 908 l 1,15,-1
 908 -12 l 1,12,-1
EndSplineSet
EndChar

StartChar: seven
Encoding: 55 55 26
Width: 864
Flags: W
LayerCount: 2
Fore
SplineSet
768 128 m 1,0,-1
 768 768 l 1,1,-1
 128 768 l 1,2,-1
 128 640 l 1,3,-1
 512 640 l 1,4,-1
 512 128 l 1,5,-1
 768 128 l 1,0,-1
908 -12 m 1,6,-1
 372 -12 l 1,7,-1
 372 500 l 1,8,-1
 -12 500 l 1,9,-1
 -12 908 l 1,10,-1
 908 908 l 1,11,-1
 908 -12 l 1,6,-1
EndSplineSet
EndChar

StartChar: eight
Encoding: 56 56 27
Width: 864
Flags: W
LayerCount: 2
Fore
SplineSet
384 256 m 1,0,-1
 384 384 l 1,1,-1
 512 384 l 1,2,-1
 512 256 l 1,3,-1
 384 256 l 1,0,-1
384 512 m 1,4,-1
 384 640 l 1,5,-1
 512 640 l 1,6,-1
 512 512 l 1,7,-1
 384 512 l 1,4,-1
768 128 m 1,8,-1
 768 768 l 1,9,-1
 128 768 l 1,10,-1
 128 128 l 1,11,-1
 768 128 l 1,8,-1
908 -12 m 1,12,-1
 -12 -12 l 1,13,-1
 -12 908 l 1,14,-1
 908 908 l 1,15,-1
 908 -12 l 1,12,-1
EndSplineSet
EndChar

StartChar: nine
Encoding: 57 57 28
Width: 864
Flags: W
LayerCount: 2
Fore
SplineSet
384 512 m 1,0,-1
 384 640 l 1,1,-1
 512 640 l 1,2,-1
 512 512 l 1,3,-1
 384 512 l 1,0,-1
768 128 m 1,4,-1
 768 768 l 1,5,-1
 128 768 l 1,6,-1
 128 384 l 1,7,-1
 512 384 l 1,8,-1
 512 256 l 1,9,-1
 128 256 l 1,10,-1
 128 128 l 1,11,-1
 768 128 l 1,4,-1
-12 908 m 1,12,-1
 908 908 l 1,13,-1
 908 -12 l 1,14,-1
 -12 -12 l 1,15,-1
 -12 908 l 1,12,-1
EndSplineSet
EndChar

StartChar: colon
Encoding: 58 58 29
Width: 480
Flags: W
LayerCount: 2
Fore
SplineSet
384 128 m 1,0,-1
 384 384 l 1,1,-1
 128 384 l 1,2,-1
 128 128 l 1,3,-1
 384 128 l 1,0,-1
384 512 m 1,4,-1
 384 768 l 1,5,-1
 128 768 l 1,6,-1
 128 512 l 1,7,-1
 384 512 l 1,4,-1
524 -12 m 1,8,-1
 -12 -12 l 1,9,-1
 -14.5596 901.542 l 5,10,-1
 526.8 901.542 l 5,11,-1
 524 -12 l 1,8,-1
EndSplineSet
EndChar

StartChar: semicolon
Encoding: 59 59 30
Width: 480
Flags: W
LayerCount: 2
Fore
SplineSet
384 128 m 1,0,-1
 384 384 l 1,1,-1
 128 384 l 1,2,-1
 128 256 l 1,3,-1
 256 256 l 1,4,-1
 256 128 l 1,5,-1
 384 128 l 1,0,-1
384 512 m 1,6,-1
 384 768 l 1,7,-1
 128 768 l 1,8,-1
 128 512 l 1,9,-1
 384 512 l 1,6,-1
524 -12 m 1,10,-1
 116 -12 l 1,11,-1
 116 116 l 1,12,-1
 -12 116 l 1,13,-1
 -12 875.888 l 5,14,-1
 524 875.888 l 5,15,-1
 524 -12 l 1,10,-1
EndSplineSet
EndChar

StartChar: less
Encoding: 60 60 31
Width: 736
Flags: W
LayerCount: 2
Fore
SplineSet
640 128 m 1,0,-1
 640 256 l 1,1,-1
 512 256 l 1,2,-1
 512 384 l 1,3,-1
 384 384 l 1,4,-1
 384 512 l 1,5,-1
 512 512 l 1,6,-1
 512 640 l 1,7,-1
 640 640 l 1,8,-1
 640 768 l 1,9,-1
 384 768 l 1,10,-1
 384 640 l 1,11,-1
 256 640 l 1,12,-1
 256 512 l 1,13,-1
 128 512 l 1,14,-1
 128 384 l 1,15,-1
 256 384 l 1,16,-1
 256 256 l 1,17,-1
 384 256 l 1,18,-1
 384 128 l 1,19,-1
 640 128 l 1,0,-1
652 396 m 1,20,-1
 780 396 l 1,21,-1
 780 -12 l 1,22,-1
 244 -12 l 1,23,-1
 244 116 l 1,24,-1
 116 116 l 1,25,-1
 116 244 l 1,26,-1
 -12 244 l 1,27,-1
 -12 652 l 1,28,-1
 116 652 l 1,29,-1
 116 780 l 1,30,-1
 244 780 l 1,31,-1
 244 908 l 1,32,-1
 780 908 l 1,33,-1
 780 500 l 1,34,-1
 652 500 l 1,35,-1
 652 396 l 1,20,-1
EndSplineSet
EndChar

StartChar: equal
Encoding: 61 61 32
Width: 800
Flags: W
LayerCount: 2
Fore
SplineSet
704 256 m 1,0,-1
 704 384 l 1,1,-1
 128 384 l 1,2,-1
 128 256 l 1,3,-1
 704 256 l 1,0,-1
704 512 m 1,4,-1
 128 512 l 1,5,-1
 128 640 l 1,6,-1
 704 640 l 1,7,-1
 704 512 l 1,4,-1
844 116 m 1,8,-1
 -12 116 l 1,9,-1
 -12 524 l 1,10,-1
 844 524 l 1,11,-1
 844 116 l 1,8,-1
844 372 m 1,12,-1
 844 780 l 1,13,-1
 -12 780 l 1,14,-1
 -12 372 l 1,15,-1
 844 372 l 1,12,-1
EndSplineSet
EndChar

StartChar: greater
Encoding: 62 62 33
Width: 736
Flags: W
LayerCount: 2
Fore
SplineSet
384 128 m 1,0,-1
 384 256 l 1,1,-1
 512 256 l 1,2,-1
 512 384 l 1,3,-1
 640 384 l 1,4,-1
 640 512 l 1,5,-1
 512 512 l 1,6,-1
 512 640 l 1,7,-1
 384 640 l 1,8,-1
 384 768 l 1,9,-1
 128 768 l 1,10,-1
 128 640 l 1,11,-1
 256 640 l 1,12,-1
 256 512 l 1,13,-1
 384 512 l 1,14,-1
 384 384 l 1,15,-1
 256 384 l 1,16,-1
 256 256 l 1,17,-1
 128 256 l 1,18,-1
 128 128 l 1,19,-1
 384 128 l 1,0,-1
116 500 m 1,20,-1
 -12 500 l 1,21,-1
 -12 908 l 1,22,-1
 524 908 l 1,23,-1
 524 780 l 1,24,-1
 652 780 l 1,25,-1
 652 652 l 1,26,-1
 780 652 l 1,27,-1
 780 244 l 1,28,-1
 652 244 l 1,29,-1
 652 116 l 1,30,-1
 524 116 l 1,31,-1
 524 -12 l 1,32,-1
 -12 -12 l 1,33,-1
 -12 396 l 1,34,-1
 116 396 l 1,35,-1
 116 500 l 1,20,-1
EndSplineSet
EndChar

StartChar: question
Encoding: 63 63 34
Width: 992
Flags: W
LayerCount: 2
Fore
SplineSet
640 128 m 1,0,-1
 640 256 l 1,1,-1
 384 256 l 1,2,-1
 384 128 l 1,3,-1
 640 128 l 1,0,-1
768 384 m 1,4,-1
 768 512 l 1,5,-1
 896 512 l 1,6,-1
 896 768 l 1,7,-1
 128 768 l 1,8,-1
 128 512 l 1,9,-1
 384 512 l 1,10,-1
 384 640 l 1,11,-1
 640 640 l 1,12,-1
 640 512 l 1,13,-1
 512 512 l 1,14,-1
 512 384 l 1,15,-1
 768 384 l 1,4,-1
992.152 895.478 m 1,16,-1
822.894 315.42 m 5,17,-1
 822 -12 l 1,18,-1
 261 -12 l 1,19,-1
 260.783 326.558 l 1,20,-1
 19.6299 328 l 1,21,-1
 19.6299 895.478 l 1,22,-1
 992.152 895.478 l 1,23,-1
 992.152 316 l 1,24,-1
 822.894 315.42 l 5,17,-1
992.152 895.478 m 1,25,-1
EndSplineSet
EndChar

StartChar: at
Encoding: 64 64 35
Width: 992
Flags: W
LayerCount: 2
Fore
SplineSet
896 128 m 1,0,-1
 896 256 l 1,1,-1
 384 256 l 1,2,-1
 384 640 l 1,3,-1
 640 640 l 1,4,-1
 640 512 l 1,5,-1
 512 512 l 1,6,-1
 512 384 l 1,7,-1
 896 384 l 1,8,-1
 896 768 l 1,9,-1
 128 768 l 1,10,-1
 128 128 l 1,11,-1
 896 128 l 1,0,-1
1036 -12 m 1,12,-1
 -12 -12 l 1,13,-1
 -12 908 l 1,14,-1
 1036 908 l 1,15,-1
 1036 -12 l 1,12,-1
EndSplineSet
EndChar

StartChar: A
Encoding: 65 65 36
Width: 864
Flags: W
LayerCount: 2
Fore
SplineSet
384 512 m 1,0,-1
 384 640 l 1,1,-1
 512 640 l 1,2,-1
 512 512 l 1,3,-1
 384 512 l 1,0,-1
768 128 m 1,4,-1
 768 768 l 1,5,-1
 128 768 l 1,6,-1
 128 128 l 1,7,-1
 384 128 l 1,8,-1
 384 384 l 1,9,-1
 512 384 l 1,10,-1
 512 128 l 1,11,-1
 768 128 l 1,4,-1
-12 -12 m 1,12,-1
 -12 908 l 1,13,-1
 908 908 l 1,14,-1
 908 -12 l 1,15,-1
 -12 -12 l 1,12,-1
EndSplineSet
EndChar

StartChar: B
Encoding: 66 66 37
Width: 864
Flags: W
LayerCount: 2
Fore
SplineSet
384 256 m 1,0,-1
 384 384 l 1,1,-1
 512 384 l 1,2,-1
 512 256 l 1,3,-1
 384 256 l 1,0,-1
384 512 m 1,4,-1
 384 640 l 1,5,-1
 512 640 l 1,6,-1
 512 512 l 1,7,-1
 384 512 l 1,4,-1
768 128 m 1,8,-1
 768 384 l 1,9,-1
 640 384 l 1,10,-1
 640 512 l 1,11,-1
 768 512 l 1,12,-1
 768 768 l 1,13,-1
 128 768 l 1,14,-1
 128 128 l 1,15,-1
 768 128 l 1,8,-1
908 -12 m 1,16,-1
 -12 -12 l 1,17,-1
 -12 908 l 1,18,-1
 908 908 l 1,19,-1
 908 -12 l 1,16,-1
EndSplineSet
EndChar

StartChar: C
Encoding: 67 67 38
Width: 864
Flags: W
LayerCount: 2
Fore
SplineSet
768 128 m 1,0,-1
 768 256 l 1,1,-1
 384 256 l 1,2,-1
 384 640 l 1,3,-1
 768 640 l 1,4,-1
 768 768 l 1,5,-1
 128 768 l 1,6,-1
 128 128 l 1,7,-1
 768 128 l 1,0,-1
908 -12 m 1,8,-1
 -12 -12 l 1,9,-1
 -12 908 l 1,10,-1
 908 908 l 1,11,-1
 908 500 l 1,12,-1
 524 500 l 1,13,-1
 524 396 l 1,14,-1
 908 396 l 1,15,-1
 908 -12 l 1,8,-1
EndSplineSet
EndChar

StartChar: D
Encoding: 68 68 39
Width: 864
Flags: W
LayerCount: 2
Fore
SplineSet
384 256 m 1,0,-1
 384 640 l 1,1,-1
 512 640 l 1,2,-1
 512 256 l 1,3,-1
 384 256 l 1,0,-1
640 128 m 1,4,-1
 640 256 l 1,5,-1
 768 256 l 1,6,-1
 768 640 l 1,7,-1
 640 640 l 1,8,-1
 640 768 l 1,9,-1
 128 768 l 1,10,-1
 128 128 l 1,11,-1
 640 128 l 1,4,-1
780 116 m 1,12,-1
 780 -12 l 1,13,-1
 -12 -12 l 1,14,-1
 -12 908 l 1,15,-1
 780 908 l 1,16,-1
 780 780 l 1,17,-1
 908 780 l 1,18,-1
 908 116 l 1,19,-1
 780 116 l 1,12,-1
EndSplineSet
EndChar

StartChar: E
Encoding: 69 69 40
Width: 864
Flags: W
LayerCount: 2
Fore
SplineSet
768 128 m 1,0,-1
 768 256 l 1,1,-1
 384 256 l 1,2,-1
 384 384 l 1,3,-1
 640 384 l 1,4,-1
 640 512 l 1,5,-1
 384 512 l 1,6,-1
 384 640 l 1,7,-1
 768 640 l 1,8,-1
 768 768 l 1,9,-1
 128 768 l 1,10,-1
 128 128 l 1,11,-1
 768 128 l 1,0,-1
908 -12 m 1,12,-1
 -12 -12 l 1,13,-1
 -12 908 l 1,14,-1
 908 908 l 1,15,-1
 908 500 l 1,16,-1
 780 500 l 1,17,-1
 780 396 l 1,18,-1
 908 396 l 1,19,-1
 908 -12 l 1,12,-1
EndSplineSet
EndChar

StartChar: F
Encoding: 70 70 41
Width: 864
Flags: W
LayerCount: 2
Fore
SplineSet
384 128 m 1,0,-1
 384 384 l 1,1,-1
 640 384 l 1,2,-1
 640 512 l 1,3,-1
 384 512 l 1,4,-1
 384 640 l 1,5,-1
 768 640 l 1,6,-1
 768 768 l 1,7,-1
 128 768 l 1,8,-1
 128 128 l 1,9,-1
 384 128 l 1,0,-1
524 -12 m 1,10,-1
 -12 -12 l 1,11,-1
 -12 908 l 1,12,-1
 908 908 l 1,13,-1
 908 500 l 1,14,-1
 780 500 l 1,15,-1
 780 244 l 1,16,-1
 524 244 l 1,17,-1
 524 -12 l 1,10,-1
EndSplineSet
EndChar

StartChar: G
Encoding: 71 71 42
Width: 864
Flags: W
LayerCount: 2
Fore
SplineSet
768 128 m 1,0,-1
 768 384 l 1,1,-1
 512 384 l 1,2,-1
 512 256 l 1,3,-1
 384 256 l 1,4,-1
 384 640 l 1,5,-1
 768 640 l 1,6,-1
 768 768 l 1,7,-1
 128 768 l 1,8,-1
 128 128 l 1,9,-1
 768 128 l 1,0,-1
908 -12 m 1,10,-1
 -12 -12 l 1,11,-1
 -12 908 l 1,12,-1
 908 908 l 1,13,-1
 908 -12 l 1,10,-1
EndSplineSet
EndChar

StartChar: H
Encoding: 72 72 43
Width: 864
Flags: W
LayerCount: 2
Fore
SplineSet
768 128 m 1,0,-1
 768 768 l 1,1,-1
 512 768 l 1,2,-1
 512 512 l 1,3,-1
 384 512 l 1,4,-1
 384 768 l 1,5,-1
 128 768 l 1,6,-1
 128 128 l 1,7,-1
 384 128 l 1,8,-1
 384 384 l 1,9,-1
 512 384 l 1,10,-1
 512 128 l 1,11,-1
 768 128 l 1,0,-1
-12 -12 m 1,12,-1
 -12 908 l 1,13,-1
 908 908 l 1,14,-1
 908 -12 l 1,15,-1
 -12 -12 l 1,12,-1
EndSplineSet
EndChar

StartChar: I
Encoding: 73 73 44
Width: 736
Flags: W
LayerCount: 2
Fore
SplineSet
640 128 m 1,0,-1
 640 256 l 1,1,-1
 512 256 l 1,2,-1
 512 640 l 1,3,-1
 640 640 l 1,4,-1
 640 768 l 1,5,-1
 128 768 l 1,6,-1
 128 640 l 1,7,-1
 256 640 l 1,8,-1
 256 256 l 1,9,-1
 128 256 l 1,10,-1
 128 128 l 1,11,-1
 640 128 l 1,0,-1
780 -12 m 1,12,-1
 -12 -12 l 1,13,-1
 -12 396 l 1,14,-1
 116 396 l 1,15,-1
 116 500 l 1,16,-1
 -12 500 l 1,17,-1
 -12 908 l 1,18,-1
 780 908 l 1,19,-1
 780 500 l 1,20,-1
 652 500 l 1,21,-1
 652 396 l 1,22,-1
 780 396 l 1,23,-1
 780 -12 l 1,12,-1
EndSplineSet
EndChar

StartChar: J
Encoding: 74 74 45
Width: 864
Flags: W
LayerCount: 2
Fore
SplineSet
768 128 m 1,0,-1
 768 768 l 1,1,-1
 512 768 l 1,2,-1
 512 256 l 1,3,-1
 384 256 l 1,4,-1
 384 384 l 1,5,-1
 128 384 l 1,6,-1
 128 128 l 1,7,-1
 768 128 l 1,0,-1
908 -12 m 1,8,-1
 -12 -12 l 1,9,-1
 -12 524 l 1,10,-1
 372 524 l 1,11,-1
 372 908 l 1,12,-1
 908 908 l 1,13,-1
 908 -12 l 1,8,-1
EndSplineSet
EndChar

StartChar: K
Encoding: 75 75 46
Width: 864
Flags: W
LayerCount: 2
Fore
SplineSet
768 128 m 1,0,-1
 768 384 l 1,1,-1
 640 384 l 1,2,-1
 640 512 l 1,3,-1
 768 512 l 1,4,-1
 768 768 l 1,5,-1
 512 768 l 1,6,-1
 512 512 l 1,7,-1
 384 512 l 1,8,-1
 384 768 l 1,9,-1
 128 768 l 1,10,-1
 128 128 l 1,11,-1
 384 128 l 1,12,-1
 384 384 l 1,13,-1
 512 384 l 1,14,-1
 512 128 l 1,15,-1
 768 128 l 1,0,-1
-12 -12 m 1,16,-1
 -12 908 l 1,17,-1
 908 908 l 1,18,-1
 908 -12 l 1,19,-1
 -12 -12 l 1,16,-1
EndSplineSet
EndChar

StartChar: L
Encoding: 76 76 47
Width: 864
Flags: W
LayerCount: 2
Fore
SplineSet
768 128 m 1,0,-1
 768 256 l 1,1,-1
 384 256 l 1,2,-1
 384 768 l 1,3,-1
 128 768 l 1,4,-1
 128 128 l 1,5,-1
 768 128 l 1,0,-1
908 -12 m 1,6,-1
 -12 -12 l 1,7,-1
 -12 908 l 1,8,-1
 524 908 l 1,9,-1
 524 396 l 1,10,-1
 908 396 l 1,11,-1
 908 -12 l 1,6,-1
EndSplineSet
EndChar

StartChar: M
Encoding: 77 77 48
Width: 1120
Flags: W
LayerCount: 2
Fore
SplineSet
1024 128 m 1,0,-1
 1024 768 l 1,1,-1
 768 768 l 1,2,-1
 768 640 l 1,3,-1
 640 640 l 1,4,-1
 640 512 l 1,5,-1
 512 512 l 1,6,-1
 512 640 l 1,7,-1
 384 640 l 1,8,-1
 384 768 l 1,9,-1
 128 768 l 1,10,-1
 128 128 l 1,11,-1
 384 128 l 1,12,-1
 384 384 l 1,13,-1
 512 384 l 1,14,-1
 512 256 l 1,15,-1
 640 256 l 1,16,-1
 640 384 l 1,17,-1
 768 384 l 1,18,-1
 768 128 l 1,19,-1
 1024 128 l 1,0,-1
628 780 m 1,20,-1
 628 908 l 1,21,-1
 1164 908 l 1,22,-1
 1164 -12 l 1,23,-1
 628 -12 l 1,24,-1
 628 116 l 1,25,-1
 524 116 l 1,26,-1
 524 -12 l 1,27,-1
 -12 -12 l 1,28,-1
 -12 908 l 1,29,-1
 524 908 l 1,30,-1
 524 780 l 1,31,-1
 628 780 l 1,20,-1
EndSplineSet
EndChar

StartChar: N
Encoding: 78 78 49
Width: 992
Flags: W
LayerCount: 2
Fore
SplineSet
896 128 m 1,0,-1
 896 768 l 1,1,-1
 640 768 l 1,2,-1
 640 512 l 1,3,-1
 512 512 l 1,4,-1
 512 640 l 1,5,-1
 384 640 l 1,6,-1
 384 768 l 1,7,-1
 128 768 l 1,8,-1
 128 128 l 1,9,-1
 384 128 l 1,10,-1
 384 384 l 1,11,-1
 512 384 l 1,12,-1
 512 256 l 1,13,-1
 640 256 l 1,14,-1
 640 128 l 1,15,-1
 896 128 l 1,0,-1
-12 -12 m 1,16,-1
 -12 908 l 1,17,-1
 1036 908 l 1,18,-1
 1036 -12 l 1,19,-1
 -12 -12 l 1,16,-1
EndSplineSet
EndChar

StartChar: O
Encoding: 79 79 50
Width: 864
Flags: W
LayerCount: 2
Fore
SplineSet
384 256 m 1,0,-1
 384 640 l 1,1,-1
 512 640 l 1,2,-1
 512 256 l 1,3,-1
 384 256 l 1,0,-1
768 128 m 1,4,-1
 768 768 l 1,5,-1
 128 768 l 1,6,-1
 128 128 l 1,7,-1
 768 128 l 1,4,-1
908 -12 m 1,8,-1
 -12 -12 l 1,9,-1
 -12 908 l 1,10,-1
 908 908 l 1,11,-1
 908 -12 l 1,8,-1
EndSplineSet
EndChar

StartChar: P
Encoding: 80 80 51
Width: 864
Flags: W
LayerCount: 2
Fore
SplineSet
384 512 m 1,0,-1
 384 640 l 1,1,-1
 512 640 l 1,2,-1
 512 512 l 1,3,-1
 384 512 l 1,0,-1
384 128 m 1,4,-1
 384 384 l 1,5,-1
 768 384 l 1,6,-1
 768 768 l 1,7,-1
 128 768 l 1,8,-1
 128 128 l 1,9,-1
 384 128 l 1,4,-1
524 -12 m 1,10,-1
 -12 -12 l 1,11,-1
 -12 908 l 1,12,-1
 908 908 l 1,13,-1
 908 244 l 1,14,-1
 524 244 l 1,15,-1
 524 -12 l 1,10,-1
EndSplineSet
EndChar

StartChar: Q
Encoding: 81 81 52
Width: 992
Flags: W
LayerCount: 2
Fore
SplineSet
384 256 m 1,0,-1
 384 640 l 1,1,-1
 512 640 l 1,2,-1
 512 256 l 1,3,-1
 384 256 l 1,0,-1
896 128 m 1,4,-1
 896 256 l 1,5,-1
 768 256 l 1,6,-1
 768 768 l 1,7,-1
 128 768 l 1,8,-1
 128 128 l 1,9,-1
 896 128 l 1,4,-1
1036 -12 m 1,10,-1
 -12 -12 l 1,11,-1
 -12 908 l 1,12,-1
 908 908 l 1,13,-1
 908 396 l 1,14,-1
 1036 396 l 1,15,-1
 1036 -12 l 1,10,-1
EndSplineSet
EndChar

StartChar: R
Encoding: 82 82 53
Width: 864
Flags: W
LayerCount: 2
Fore
SplineSet
384 512 m 1,0,-1
 384 640 l 1,1,-1
 512 640 l 1,2,-1
 512 512 l 1,3,-1
 384 512 l 1,0,-1
768 128 m 1,4,-1
 768 384 l 1,5,-1
 640 384 l 1,6,-1
 640 512 l 1,7,-1
 768 512 l 1,8,-1
 768 768 l 1,9,-1
 128 768 l 1,10,-1
 128 128 l 1,11,-1
 384 128 l 1,12,-1
 384 384 l 1,13,-1
 512 384 l 1,14,-1
 512 128 l 1,15,-1
 768 128 l 1,4,-1
-12 -12 m 1,16,-1
 -12 908 l 1,17,-1
 908 908 l 1,18,-1
 908 -12 l 1,19,-1
 -12 -12 l 1,16,-1
EndSplineSet
EndChar

StartChar: S
Encoding: 83 83 54
Width: 864
Flags: W
LayerCount: 2
Fore
SplineSet
768 128 m 1,0,-1
 768 384 l 1,1,-1
 640 384 l 1,2,-1
 640 512 l 1,3,-1
 512 512 l 1,4,-1
 512 640 l 1,5,-1
 768 640 l 1,6,-1
 768 768 l 1,7,-1
 128 768 l 1,8,-1
 128 512 l 1,9,-1
 256 512 l 1,10,-1
 256 384 l 1,11,-1
 384 384 l 1,12,-1
 384 256 l 1,13,-1
 128 256 l 1,14,-1
 128 128 l 1,15,-1
 768 128 l 1,0,-1
-12 908 m 1,16,-1
 908 908 l 1,17,-1
 908 -12 l 1,18,-1
 -12 -12 l 1,19,-1
 -12 908 l 1,16,-1
EndSplineSet
EndChar

StartChar: T
Encoding: 84 84 55
Width: 992
Flags: W
LayerCount: 2
Fore
SplineSet
640 128 m 1,0,-1
 640 640 l 1,1,-1
 896 640 l 1,2,-1
 896 768 l 1,3,-1
 128 768 l 1,4,-1
 128 640 l 1,5,-1
 384 640 l 1,6,-1
 384 128 l 1,7,-1
 640 128 l 1,0,-1
780 -12 m 1,8,-1
 244 -12 l 1,9,-1
 244 500 l 1,10,-1
 -12 500 l 1,11,-1
 -12 908 l 1,12,-1
 1036 908 l 1,13,-1
 1036 500 l 1,14,-1
 780 500 l 1,15,-1
 780 -12 l 1,8,-1
EndSplineSet
EndChar

StartChar: U
Encoding: 85 85 56
Width: 864
Flags: W
LayerCount: 2
Fore
SplineSet
768 128 m 1,0,-1
 768 768 l 1,1,-1
 512 768 l 1,2,-1
 512 256 l 1,3,-1
 384 256 l 1,4,-1
 384 768 l 1,5,-1
 128 768 l 1,6,-1
 128 128 l 1,7,-1
 768 128 l 1,0,-1
908 908 m 1,8,-1
 908 -12 l 1,9,-1
 -12 -12 l 1,10,-1
 -12 908 l 1,11,-1
 908 908 l 1,8,-1
EndSplineSet
EndChar

StartChar: V
Encoding: 86 86 57
Width: 864
Flags: W
LayerCount: 2
Fore
SplineSet
512 128 m 1,0,-1
 512 256 l 1,1,-1
 640 256 l 1,2,-1
 640 384 l 1,3,-1
 768 384 l 1,4,-1
 768 768 l 1,5,-1
 512 768 l 1,6,-1
 512 384 l 1,7,-1
 384 384 l 1,8,-1
 384 768 l 1,9,-1
 128 768 l 1,10,-1
 128 384 l 1,11,-1
 256 384 l 1,12,-1
 256 256 l 1,13,-1
 384 256 l 1,14,-1
 384 128 l 1,15,-1
 512 128 l 1,0,-1
908 908 m 1,16,-1
 908 244 l 1,17,-1
 780 244 l 1,18,-1
 780 116 l 1,19,-1
 652 116 l 1,20,-1
 652 -12 l 1,21,-1
 244 -12 l 1,22,-1
 244 116 l 1,23,-1
 116 116 l 1,24,-1
 116 244 l 1,25,-1
 -12 244 l 1,26,-1
 -12 908 l 1,27,-1
 908 908 l 1,16,-1
EndSplineSet
EndChar

StartChar: W
Encoding: 87 87 58
Width: 1120
Flags: W
LayerCount: 2
Fore
SplineSet
1024 128 m 1,0,-1
 1024 768 l 1,1,-1
 768 768 l 1,2,-1
 768 512 l 1,3,-1
 640 512 l 1,4,-1
 640 640 l 1,5,-1
 512 640 l 1,6,-1
 512 512 l 1,7,-1
 384 512 l 1,8,-1
 384 768 l 1,9,-1
 128 768 l 1,10,-1
 128 128 l 1,11,-1
 384 128 l 1,12,-1
 384 256 l 1,13,-1
 512 256 l 1,14,-1
 512 384 l 1,15,-1
 640 384 l 1,16,-1
 640 256 l 1,17,-1
 768 256 l 1,18,-1
 768 128 l 1,19,-1
 1024 128 l 1,0,-1
524 116 m 1,20,-1
 524 -12 l 1,21,-1
 -12 -12 l 1,22,-1
 -12 908 l 1,23,-1
 524 908 l 1,24,-1
 524 780 l 1,25,-1
 628 780 l 1,26,-1
 628 908 l 1,27,-1
 1164 908 l 1,28,-1
 1164 -12 l 1,29,-1
 628 -12 l 1,30,-1
 628 116 l 1,31,-1
 524 116 l 1,20,-1
EndSplineSet
EndChar

StartChar: X
Encoding: 88 88 59
Width: 864
Flags: W
LayerCount: 2
Fore
SplineSet
768 128 m 1,0,-1
 768 384 l 1,1,-1
 640 384 l 1,2,-1
 640 512 l 1,3,-1
 768 512 l 1,4,-1
 768 768 l 1,5,-1
 512 768 l 1,6,-1
 512 512 l 1,7,-1
 384 512 l 1,8,-1
 384 768 l 1,9,-1
 128 768 l 1,10,-1
 128 512 l 1,11,-1
 256 512 l 1,12,-1
 256 384 l 1,13,-1
 128 384 l 1,14,-1
 128 128 l 1,15,-1
 384 128 l 1,16,-1
 384 384 l 1,17,-1
 512 384 l 1,18,-1
 512 128 l 1,19,-1
 768 128 l 1,0,-1
-12 -12 m 1,20,-1
 -12 908 l 1,21,-1
 908 908 l 1,22,-1
 908 -12 l 1,23,-1
 -12 -12 l 1,20,-1
EndSplineSet
EndChar

StartChar: Y
Encoding: 89 89 60
Width: 992
Flags: W
LayerCount: 2
Fore
SplineSet
640 128 m 1,0,-1
 640 384 l 1,1,-1
 768 384 l 1,2,-1
 768 512 l 1,3,-1
 896 512 l 1,4,-1
 896 768 l 1,5,-1
 640 768 l 1,6,-1
 640 512 l 1,7,-1
 384 512 l 1,8,-1
 384 768 l 1,9,-1
 128 768 l 1,10,-1
 128 512 l 1,11,-1
 256 512 l 1,12,-1
 256 384 l 1,13,-1
 384 384 l 1,14,-1
 384 128 l 1,15,-1
 640 128 l 1,0,-1
1036 908 m 1,16,-1
 1036 372 l 1,17,-1
 908 372 l 1,18,-1
 908 244 l 1,19,-1
 780 244 l 1,20,-1
 780 -12 l 1,21,-1
 244 -12 l 1,22,-1
 244 244 l 1,23,-1
 116 244 l 1,24,-1
 116 372 l 1,25,-1
 -12 372 l 1,26,-1
 -12 908 l 1,27,-1
 1036 908 l 1,16,-1
EndSplineSet
EndChar

StartChar: Z
Encoding: 90 90 61
Width: 864
Flags: W
LayerCount: 2
Fore
SplineSet
768 128 m 1,0,-1
 768 256 l 1,1,-1
 384 256 l 1,2,-1
 384 384 l 1,3,-1
 768 384 l 1,4,-1
 768 768 l 1,5,-1
 128 768 l 1,6,-1
 128 640 l 1,7,-1
 512 640 l 1,8,-1
 512 512 l 1,9,-1
 128 512 l 1,10,-1
 128 128 l 1,11,-1
 768 128 l 1,0,-1
-12 908 m 1,12,-1
 908 908 l 1,13,-1
 908 -12 l 1,14,-1
 -12 -12 l 1,15,-1
 -12 908 l 1,12,-1
EndSplineSet
EndChar

StartChar: bracketleft
Encoding: 91 91 62
Width: 608
Flags: W
LayerCount: 2
Fore
SplineSet
512 128 m 1,0,-1
 512 256 l 1,1,-1
 384 256 l 1,2,-1
 384 640 l 1,3,-1
 512 640 l 1,4,-1
 512 768 l 1,5,-1
 128 768 l 1,6,-1
 128 128 l 1,7,-1
 512 128 l 1,0,-1
652 -12 m 1,8,-1
 -12 -12 l 1,9,-1
 -12 908 l 1,10,-1
 652 908 l 1,11,-1
 652 500 l 1,12,-1
 524 500 l 1,13,-1
 524 396 l 1,14,-1
 652 396 l 1,15,-1
 652 -12 l 1,8,-1
EndSplineSet
EndChar

StartChar: backslash
Encoding: 92 92 63
Width: 736
Flags: W
LayerCount: 2
Fore
SplineSet
640 128 m 1,0,-1
 640 384 l 1,1,-1
 512 384 l 1,2,-1
 512 512 l 1,3,-1
 384 512 l 1,4,-1
 384 768 l 1,5,-1
 128 768 l 1,6,-1
 128 512 l 1,7,-1
 256 512 l 1,8,-1
 256 384 l 1,9,-1
 384 384 l 1,10,-1
 384 128 l 1,11,-1
 640 128 l 1,0,-1
780 -12 m 1,12,-1
 244 -12 l 1,13,-1
 244 244 l 1,14,-1
 116 244 l 1,15,-1
 116 372 l 1,16,-1
 -12 372 l 1,17,-1
 -12 908 l 1,18,-1
 524 908 l 1,19,-1
 524 652 l 1,20,-1
 652 652 l 1,21,-1
 652 524 l 1,22,-1
 780 524 l 1,23,-1
 780 -12 l 1,12,-1
EndSplineSet
EndChar

StartChar: bracketright
Encoding: 93 93 64
Width: 608
Flags: W
LayerCount: 2
Fore
SplineSet
512 128 m 1,0,-1
 512 768 l 1,1,-1
 128 768 l 1,2,-1
 128 640 l 1,3,-1
 256 640 l 1,4,-1
 256 256 l 1,5,-1
 128 256 l 1,6,-1
 128 128 l 1,7,-1
 512 128 l 1,0,-1
652 -12 m 1,8,-1
 -12 -12 l 1,9,-1
 -12 396 l 1,10,-1
 116 396 l 1,11,-1
 116 500 l 1,12,-1
 -12 500 l 1,13,-1
 -12 908 l 1,14,-1
 652 908 l 1,15,-1
 652 -12 l 1,8,-1
EndSplineSet
EndChar

StartChar: asciicircum
Encoding: 94 94 65
Width: 992
Flags: W
LayerCount: 2
Fore
SplineSet
896 384 m 1,0,-1
 896 512 l 1,1,-1
 768 512 l 1,2,-1
 768 640 l 1,3,-1
 640 640 l 1,4,-1
 640 768 l 1,5,-1
 384 768 l 1,6,-1
 384 640 l 1,7,-1
 256 640 l 1,8,-1
 256 512 l 1,9,-1
 128 512 l 1,10,-1
 128 384 l 1,11,-1
 384 384 l 1,12,-1
 384 512 l 1,13,-1
 640 512 l 1,14,-1
 640 384 l 1,15,-1
 896 384 l 1,0,-1
-12 244 m 1,16,-1
 -12 652 l 1,17,-1
 116 652 l 1,18,-1
 116 780 l 1,19,-1
 244 780 l 1,20,-1
 244 908 l 1,21,-1
 780 908 l 1,22,-1
 780 780 l 1,23,-1
 908 780 l 1,24,-1
 908 652 l 1,25,-1
 1036 652 l 1,26,-1
 1036 244 l 1,27,-1
 -12 244 l 1,16,-1
EndSplineSet
EndChar

StartChar: underscore
Encoding: 95 95 66
Width: 736
Flags: W
LayerCount: 2
Fore
SplineSet
640 128 m 1,0,-1
 640 256 l 1,1,-1
 128 256 l 1,2,-1
 128 128 l 1,3,-1
 640 128 l 1,0,-1
780 -12 m 1,4,-1
 -12 -12 l 1,5,-1
 -12 396 l 1,6,-1
 780 396 l 1,7,-1
 780 -12 l 1,4,-1
EndSplineSet
EndChar

StartChar: grave
Encoding: 96 96 67
Width: 608
Flags: W
LayerCount: 2
Fore
SplineSet
512 384 m 1,0,-1
 512 512 l 1,1,-1
 384 512 l 1,2,-1
 384 768 l 1,3,-1
 128 768 l 1,4,-1
 128 512 l 1,5,-1
 256 512 l 1,6,-1
 256 384 l 1,7,-1
 512 384 l 1,0,-1
652 244 m 1,8,-1
 116 244 l 1,9,-1
 116 372 l 1,10,-1
 -12 372 l 1,11,-1
 -12 908 l 1,12,-1
 524 908 l 1,13,-1
 524 652 l 1,14,-1
 652 652 l 1,15,-1
 652 244 l 1,8,-1
EndSplineSet
EndChar

StartChar: a
Encoding: 97 97 68
Width: 864
Flags: W
LayerCount: 2
Fore
SplineSet
768 128 m 1,0,-1
 768 640 l 1,1,-1
 128 640 l 1,2,-1
 128 512 l 1,3,-1
 512 512 l 1,4,-1
 512 256 l 1,5,-1
 384 256 l 1,6,-1
 384 384 l 1,7,-1
 128 384 l 1,8,-1
 128 128 l 1,9,-1
 768 128 l 1,0,-1
-12 780 m 1,10,-1
 908 780 l 1,11,-1
 908 -12 l 1,12,-1
 -12 -12 l 1,13,-1
 -12 780 l 1,10,-1
EndSplineSet
EndChar

StartChar: b
Encoding: 98 98 69
Width: 864
Flags: W
LayerCount: 2
Fore
SplineSet
384 256 m 1,0,-1
 384 512 l 1,1,-1
 512 512 l 1,2,-1
 512 256 l 1,3,-1
 384 256 l 1,0,-1
768 128 m 1,4,-1
 768 640 l 1,5,-1
 384 640 l 1,6,-1
 384 768 l 1,7,-1
 128 768 l 1,8,-1
 128 128 l 1,9,-1
 768 128 l 1,4,-1
908 -12 m 1,10,-1
 -12 -12 l 1,11,-1
 -12 908 l 1,12,-1
 524 908 l 1,13,-1
 524 780 l 1,14,-1
 908 780 l 1,15,-1
 908 -12 l 1,10,-1
EndSplineSet
EndChar

StartChar: c
Encoding: 99 99 70
Width: 736
Flags: W
LayerCount: 2
Fore
SplineSet
640 128 m 1,0,-1
 640 256 l 1,1,-1
 384 256 l 1,2,-1
 384 512 l 1,3,-1
 640 512 l 1,4,-1
 640 640 l 1,5,-1
 128 640 l 1,6,-1
 128 128 l 1,7,-1
 640 128 l 1,0,-1
780 -12 m 1,8,-1
 -12 -12 l 1,9,-1
 -12 780 l 1,10,-1
 780 780 l 1,11,-1
 780 -12 l 1,8,-1
EndSplineSet
EndChar

StartChar: d
Encoding: 100 100 71
Width: 864
Flags: W
LayerCount: 2
Fore
SplineSet
384 256 m 1,0,-1
 384 512 l 1,1,-1
 512 512 l 1,2,-1
 512 256 l 1,3,-1
 384 256 l 1,0,-1
768 128 m 1,4,-1
 768 768 l 1,5,-1
 512 768 l 1,6,-1
 512 640 l 1,7,-1
 128 640 l 1,8,-1
 128 128 l 1,9,-1
 768 128 l 1,4,-1
908 -12 m 1,10,-1
 -12 -12 l 1,11,-1
 -12 780 l 1,12,-1
 372 780 l 1,13,-1
 372 908 l 1,14,-1
 908 908 l 1,15,-1
 908 -12 l 1,10,-1
EndSplineSet
EndChar

StartChar: e
Encoding: 101 101 72
Width: 864
Flags: W
LayerCount: 2
Fore
SplineSet
768 128 m 1,0,-1
 768 256 l 1,1,-1
 384 256 l 1,2,-1
 384 512 l 1,3,-1
 512 512 l 1,4,-1
 512 384 l 1,5,-1
 768 384 l 1,6,-1
 768 640 l 1,7,-1
 128 640 l 1,8,-1
 128 128 l 1,9,-1
 768 128 l 1,0,-1
908 -12 m 1,10,-1
 -12 -12 l 1,11,-1
 -12 780 l 1,12,-1
 908 780 l 1,13,-1
 908 -12 l 1,10,-1
EndSplineSet
EndChar

StartChar: f
Encoding: 102 102 73
Width: 736
Flags: W
LayerCount: 2
Fore
SplineSet
512 128 m 1,0,-1
 512 384 l 1,1,-1
 640 384 l 1,2,-1
 640 512 l 1,3,-1
 512 512 l 1,4,-1
 512 640 l 1,5,-1
 640 640 l 1,6,-1
 640 768 l 1,7,-1
 256 768 l 1,8,-1
 256 512 l 1,9,-1
 128 512 l 1,10,-1
 128 384 l 1,11,-1
 256 384 l 1,12,-1
 256 128 l 1,13,-1
 512 128 l 1,0,-1
780 244 m 1,14,-1
 652 244 l 1,15,-1
 652 -12 l 1,16,-1
 116 -12 l 1,17,-1
 116 244 l 1,18,-1
 -12 244 l 1,19,-1
 -12 652 l 1,20,-1
 116 652 l 1,21,-1
 116 908 l 1,22,-1
 780 908 l 1,23,-1
 780 244 l 1,14,-1
EndSplineSet
EndChar

StartChar: g
Encoding: 103 103 74
Width: 864
Flags: W
LayerCount: 2
Fore
SplineSet
384 384 m 1,0,-1
 384 512 l 1,1,-1
 512 512 l 1,2,-1
 512 384 l 1,3,-1
 384 384 l 1,0,-1
768 0 m 1,4,-1
 768 640 l 1,5,-1
 128 640 l 1,6,-1
 128 256 l 1,7,-1
 512 256 l 1,8,-1
 512 128 l 1,9,-1
 256 128 l 1,10,-1
 256 0 l 1,11,-1
 768 0 l 1,4,-1
908 -140 m 1,12,-1
 116 -140 l 1,13,-1
 116 116 l 1,14,-1
 -12 116 l 1,15,-1
 -12 780 l 1,16,-1
 908 780 l 1,17,-1
 908 -140 l 1,12,-1
EndSplineSet
EndChar

StartChar: h
Encoding: 104 104 75
Width: 864
Flags: W
LayerCount: 2
Fore
SplineSet
768 128 m 1,0,-1
 768 640 l 1,1,-1
 384 640 l 1,2,-1
 384 768 l 1,3,-1
 128 768 l 1,4,-1
 128 128 l 1,5,-1
 384 128 l 1,6,-1
 384 512 l 1,7,-1
 512 512 l 1,8,-1
 512 128 l 1,9,-1
 768 128 l 1,0,-1
-12 -12 m 1,10,-1
 -12 908 l 1,11,-1
 524 908 l 1,12,-1
 524 780 l 1,13,-1
 908 780 l 1,14,-1
 908 -12 l 1,15,-1
 -12 -12 l 1,10,-1
EndSplineSet
EndChar

StartChar: i
Encoding: 105 105 76
Width: 608
Flags: W
LayerCount: 2
Fore
SplineSet
512 128 m 1,0,-1
 512 512 l 1,1,-1
 128 512 l 1,2,-1
 128 384 l 1,3,-1
 256 384 l 1,4,-1
 256 128 l 1,5,-1
 512 128 l 1,0,-1
512 640 m 1,6,-1
 256 640 l 1,7,-1
 256 768 l 1,8,-1
 512 768 l 1,9,-1
 512 640 l 1,6,-1
652 -12 m 1,10,-1
 116 -12 l 1,11,-1
 116 244 l 1,12,-1
 -12 244 l 1,13,-1
 -12 652 l 1,14,-1
 652 652 l 1,15,-1
 652 -12 l 1,10,-1
652 500 m 1,16,-1
 652 908 l 1,17,-1
 116 908 l 1,18,-1
 116 500 l 1,19,-1
 652 500 l 1,16,-1
EndSplineSet
EndChar

StartChar: j
Encoding: 106 106 77
Width: 736
Flags: W
LayerCount: 2
Fore
SplineSet
640 0 m 1,0,-1
 640 512 l 1,1,-1
 256 512 l 1,2,-1
 256 384 l 1,3,-1
 384 384 l 1,4,-1
 384 128 l 1,5,-1
 128 128 l 1,6,-1
 128 0 l 1,7,-1
 640 0 l 1,0,-1
640 640 m 1,8,-1
 384 640 l 1,9,-1
 384 768 l 1,10,-1
 640 768 l 1,11,-1
 640 640 l 1,8,-1
780 -140 m 1,12,-1
 -12 -140 l 1,13,-1
 -12 268 l 1,14,-1
 116 268 l 1,15,-1
 116 652 l 1,16,-1
 780 652 l 1,17,-1
 780 -140 l 1,12,-1
780 500 m 1,18,-1
 780 908 l 1,19,-1
 244 908 l 1,20,-1
 244 500 l 1,21,-1
 780 500 l 1,18,-1
EndSplineSet
EndChar

StartChar: k
Encoding: 107 107 78
Width: 864
Flags: W
LayerCount: 2
Fore
SplineSet
768 128 m 1,0,-1
 768 384 l 1,1,-1
 640 384 l 1,2,-1
 640 512 l 1,3,-1
 768 512 l 1,4,-1
 768 640 l 1,5,-1
 512 640 l 1,6,-1
 512 512 l 1,7,-1
 384 512 l 1,8,-1
 384 768 l 1,9,-1
 128 768 l 1,10,-1
 128 128 l 1,11,-1
 384 128 l 1,12,-1
 384 384 l 1,13,-1
 512 384 l 1,14,-1
 512 128 l 1,15,-1
 768 128 l 1,0,-1
-12 -12 m 1,16,-1
 -12 908 l 1,17,-1
 524 908 l 1,18,-1
 524 780 l 1,19,-1
 908 780 l 1,20,-1
 908 -12 l 1,21,-1
 -12 -12 l 1,16,-1
EndSplineSet
EndChar

StartChar: l
Encoding: 108 108 79
Width: 608
Flags: W
LayerCount: 2
Fore
SplineSet
512 128 m 1,0,-1
 512 768 l 1,1,-1
 128 768 l 1,2,-1
 128 640 l 1,3,-1
 256 640 l 1,4,-1
 256 128 l 1,5,-1
 512 128 l 1,0,-1
652 -12 m 1,6,-1
 116 -12 l 1,7,-1
 116 500 l 1,8,-1
 -12 500 l 1,9,-1
 -12 908 l 1,10,-1
 652 908 l 1,11,-1
 652 -12 l 1,6,-1
EndSplineSet
EndChar

StartChar: m
Encoding: 109 109 80
Width: 1120
Flags: W
LayerCount: 2
Fore
SplineSet
1024 128 m 1,0,-1
 1024 640 l 1,1,-1
 128 640 l 1,2,-1
 128 128 l 1,3,-1
 384 128 l 1,4,-1
 384 512 l 1,5,-1
 512 512 l 1,6,-1
 512 128 l 1,7,-1
 640 128 l 1,8,-1
 640 512 l 1,9,-1
 768 512 l 1,10,-1
 768 128 l 1,11,-1
 1024 128 l 1,0,-1
780 -12 m 1,12,-1
 524 -12 l 1,13,-1
 -12 -12 l 1,14,-1
 -12 780 l 1,15,-1
 1164 780 l 1,16,-1
 1164 -12 l 1,17,-1
 780 -12 l 1,12,-1
EndSplineSet
EndChar

StartChar: n
Encoding: 110 110 81
Width: 864
Flags: W
LayerCount: 2
Fore
SplineSet
768 128 m 1,0,-1
 768 640 l 1,1,-1
 128 640 l 1,2,-1
 128 128 l 1,3,-1
 384 128 l 1,4,-1
 384 512 l 1,5,-1
 512 512 l 1,6,-1
 512 128 l 1,7,-1
 768 128 l 1,0,-1
-12 -12 m 1,8,-1
 -12 780 l 1,9,-1
 908 780 l 1,10,-1
 908 -12 l 1,11,-1
 -12 -12 l 1,8,-1
EndSplineSet
EndChar

StartChar: o
Encoding: 111 111 82
Width: 864
Flags: W
LayerCount: 2
Fore
SplineSet
384 256 m 1,0,-1
 384 512 l 1,1,-1
 512 512 l 1,2,-1
 512 256 l 1,3,-1
 384 256 l 1,0,-1
768 128 m 1,4,-1
 768 640 l 1,5,-1
 128 640 l 1,6,-1
 128 128 l 1,7,-1
 768 128 l 1,4,-1
908 -12 m 1,8,-1
 -12 -12 l 1,9,-1
 -12 780 l 1,10,-1
 908 780 l 1,11,-1
 908 -12 l 1,8,-1
EndSplineSet
EndChar

StartChar: p
Encoding: 112 112 83
Width: 864
Flags: W
LayerCount: 2
Fore
SplineSet
384 256 m 1,0,-1
 384 512 l 1,1,-1
 512 512 l 1,2,-1
 512 256 l 1,3,-1
 384 256 l 1,0,-1
384 0 m 1,4,-1
 384 128 l 1,5,-1
 768 128 l 1,6,-1
 768 640 l 1,7,-1
 128 640 l 1,8,-1
 128 0 l 1,9,-1
 384 0 l 1,4,-1
524 -12 m 1,10,-1
 524 -140 l 1,11,-1
 -12 -140 l 1,12,-1
 -12 780 l 1,13,-1
 908 780 l 1,14,-1
 908 -12 l 1,15,-1
 524 -12 l 1,10,-1
EndSplineSet
EndChar

StartChar: q
Encoding: 113 113 84
Width: 864
Flags: W
LayerCount: 2
Fore
SplineSet
384 256 m 1,0,-1
 384 512 l 1,1,-1
 512 512 l 1,2,-1
 512 256 l 1,3,-1
 384 256 l 1,0,-1
768 0 m 1,4,-1
 768 640 l 1,5,-1
 128 640 l 1,6,-1
 128 128 l 1,7,-1
 512 128 l 1,8,-1
 512 0 l 1,9,-1
 768 0 l 1,4,-1
908 -140 m 1,10,-1
 372 -140 l 1,11,-1
 372 -12 l 1,12,-1
 -12 -12 l 1,13,-1
 -12 780 l 1,14,-1
 908 780 l 1,15,-1
 908 -140 l 1,10,-1
EndSplineSet
EndChar

StartChar: r
Encoding: 114 114 85
Width: 864
Flags: W
LayerCount: 2
Fore
SplineSet
384 128 m 1,0,-1
 384 512 l 1,1,-1
 768 512 l 1,2,-1
 768 640 l 1,3,-1
 128 640 l 1,4,-1
 128 128 l 1,5,-1
 384 128 l 1,0,-1
524 -12 m 1,6,-1
 -12 -12 l 1,7,-1
 -12 780 l 1,8,-1
 908 780 l 1,9,-1
 908 372 l 1,10,-1
 524 372 l 1,11,-1
 524 -12 l 1,6,-1
EndSplineSet
EndChar

StartChar: s
Encoding: 115 115 86
Width: 864
Flags: W
LayerCount: 2
Fore
SplineSet
768 128 m 1,0,-1
 768 384 l 1,1,-1
 512 384 l 1,2,-1
 512 512 l 1,3,-1
 768 512 l 1,4,-1
 768 640 l 1,5,-1
 128 640 l 1,6,-1
 128 384 l 1,7,-1
 384 384 l 1,8,-1
 384 256 l 1,9,-1
 128 256 l 1,10,-1
 128 128 l 1,11,-1
 768 128 l 1,0,-1
-12 780 m 1,12,-1
 908 780 l 1,13,-1
 908 -12 l 1,14,-1
 -12 -12 l 1,15,-1
 -12 780 l 1,12,-1
EndSplineSet
EndChar

StartChar: t
Encoding: 116 116 87
Width: 736
Flags: W
LayerCount: 2
Fore
SplineSet
640 128 m 1,0,-1
 640 256 l 1,1,-1
 512 256 l 1,2,-1
 512 512 l 1,3,-1
 640 512 l 1,4,-1
 640 640 l 1,5,-1
 512 640 l 1,6,-1
 512 768 l 1,7,-1
 256 768 l 1,8,-1
 256 640 l 1,9,-1
 128 640 l 1,10,-1
 128 512 l 1,11,-1
 256 512 l 1,12,-1
 256 128 l 1,13,-1
 640 128 l 1,0,-1
780 -12 m 1,14,-1
 116 -12 l 1,15,-1
 116 372 l 1,16,-1
 -12 372 l 1,17,-1
 -12 780 l 1,18,-1
 116 780 l 1,19,-1
 116 908 l 1,20,-1
 652 908 l 1,21,-1
 652 780 l 1,22,-1
 780 780 l 1,23,-1
 780 -12 l 1,14,-1
EndSplineSet
EndChar

StartChar: u
Encoding: 117 117 88
Width: 864
Flags: W
LayerCount: 2
Fore
SplineSet
768 128 m 1,0,-1
 768 640 l 1,1,-1
 512 640 l 1,2,-1
 512 256 l 1,3,-1
 384 256 l 1,4,-1
 384 640 l 1,5,-1
 128 640 l 1,6,-1
 128 128 l 1,7,-1
 768 128 l 1,0,-1
908 780 m 1,8,-1
 908 -12 l 1,9,-1
 -12 -12 l 1,10,-1
 -12 780 l 1,11,-1
 908 780 l 1,8,-1
EndSplineSet
EndChar

StartChar: v
Encoding: 118 118 89
Width: 864
Flags: W
LayerCount: 2
Fore
SplineSet
512 128 m 1,0,-1
 512 256 l 1,1,-1
 640 256 l 1,2,-1
 640 384 l 1,3,-1
 768 384 l 1,4,-1
 768 640 l 1,5,-1
 512 640 l 1,6,-1
 512 384 l 1,7,-1
 384 384 l 1,8,-1
 384 640 l 1,9,-1
 128 640 l 1,10,-1
 128 384 l 1,11,-1
 256 384 l 1,12,-1
 256 256 l 1,13,-1
 384 256 l 1,14,-1
 384 128 l 1,15,-1
 512 128 l 1,0,-1
908 780 m 1,16,-1
 908 244 l 1,17,-1
 780 244 l 1,18,-1
 780 116 l 1,19,-1
 652 116 l 1,20,-1
 652 -12 l 1,21,-1
 244 -12 l 1,22,-1
 244 116 l 1,23,-1
 116 116 l 1,24,-1
 116 244 l 1,25,-1
 -12 244 l 1,26,-1
 -12 780 l 1,27,-1
 908 780 l 1,16,-1
EndSplineSet
EndChar

StartChar: w
Encoding: 119 119 90
Width: 1120
Flags: W
LayerCount: 2
Fore
SplineSet
1024 128 m 1,0,-1
 1024 640 l 1,1,-1
 768 640 l 1,2,-1
 768 256 l 1,3,-1
 640 256 l 1,4,-1
 640 640 l 1,5,-1
 512 640 l 1,6,-1
 512 256 l 1,7,-1
 384 256 l 1,8,-1
 384 640 l 1,9,-1
 128 640 l 1,10,-1
 128 128 l 1,11,-1
 1024 128 l 1,0,-1
372 780 m 1,12,-1
 628 780 l 1,13,-1
 1164 780 l 1,14,-1
 1164 -12 l 1,15,-1
 -12 -12 l 1,16,-1
 -12 780 l 1,17,-1
 372 780 l 1,12,-1
EndSplineSet
EndChar

StartChar: x
Encoding: 120 120 91
Width: 864
Flags: W
LayerCount: 2
Fore
SplineSet
768 128 m 1,0,-1
 768 384 l 1,1,-1
 640 384 l 1,2,-1
 640 512 l 1,3,-1
 768 512 l 1,4,-1
 768 640 l 1,5,-1
 512 640 l 1,6,-1
 512 512 l 1,7,-1
 384 512 l 1,8,-1
 384 640 l 1,9,-1
 128 640 l 1,10,-1
 128 512 l 1,11,-1
 256 512 l 1,12,-1
 256 384 l 1,13,-1
 128 384 l 1,14,-1
 128 128 l 1,15,-1
 384 128 l 1,16,-1
 384 384 l 1,17,-1
 512 384 l 1,18,-1
 512 128 l 1,19,-1
 768 128 l 1,0,-1
-12 -12 m 1,20,-1
 -12 780 l 1,21,-1
 908 780 l 1,22,-1
 908 -12 l 1,23,-1
 -12 -12 l 1,20,-1
EndSplineSet
EndChar

StartChar: y
Encoding: 121 121 92
Width: 864
Flags: W
LayerCount: 2
Fore
SplineSet
768 0 m 1,0,-1
 768 640 l 1,1,-1
 512 640 l 1,2,-1
 512 384 l 1,3,-1
 384 384 l 1,4,-1
 384 640 l 1,5,-1
 128 640 l 1,6,-1
 128 256 l 1,7,-1
 512 256 l 1,8,-1
 512 128 l 1,9,-1
 256 128 l 1,10,-1
 256 0 l 1,11,-1
 768 0 l 1,0,-1
908 780 m 1,12,-1
 908 -140 l 1,13,-1
 116 -140 l 1,14,-1
 116 116 l 1,15,-1
 -12 116 l 1,16,-1
 -12 780 l 1,17,-1
 908 780 l 1,12,-1
EndSplineSet
EndChar

StartChar: z
Encoding: 122 122 93
Width: 864
Flags: W
LayerCount: 2
Fore
SplineSet
768 128 m 1,0,-1
 768 256 l 1,1,-1
 512 256 l 1,2,-1
 512 384 l 1,3,-1
 768 384 l 1,4,-1
 768 640 l 1,5,-1
 128 640 l 1,6,-1
 128 512 l 1,7,-1
 384 512 l 1,8,-1
 384 384 l 1,9,-1
 128 384 l 1,10,-1
 128 128 l 1,11,-1
 768 128 l 1,0,-1
-12 780 m 1,12,-1
 908 780 l 1,13,-1
 908 -12 l 1,14,-1
 -12 -12 l 1,15,-1
 -12 780 l 1,12,-1
EndSplineSet
EndChar

StartChar: braceleft
Encoding: 123 123 94
Width: 608
Flags: W
LayerCount: 2
Fore
SplineSet
512 128 m 1,0,-1
 512 256 l 1,1,-1
 384 256 l 1,2,-1
 384 640 l 1,3,-1
 512 640 l 1,4,-1
 512 768 l 1,5,-1
 256 768 l 1,6,-1
 256 512 l 1,7,-1
 128 512 l 1,8,-1
 128 384 l 1,9,-1
 256 384 l 1,10,-1
 256 128 l 1,11,-1
 512 128 l 1,0,-1
652 -12 m 1,12,-1
 116 -12 l 1,13,-1
 116 244 l 1,14,-1
 -12 244 l 1,15,-1
 -12 652 l 1,16,-1
 116 652 l 1,17,-1
 116 908 l 1,18,-1
 652 908 l 1,19,-1
 652 500 l 1,20,-1
 524 500 l 1,21,-1
 524 396 l 1,22,-1
 652 396 l 1,23,-1
 652 -12 l 1,12,-1
EndSplineSet
EndChar

StartChar: bar
Encoding: 124 124 95
Width: 480
Flags: W
LayerCount: 2
Fore
SplineSet
384 128 m 1,0,-1
 384 768 l 1,1,-1
 128 768 l 1,2,-1
 128 128 l 1,3,-1
 384 128 l 1,0,-1
524 -12 m 1,4,-1
 -12 -12 l 1,5,-1
 -12 908 l 1,6,-1
 524 908 l 1,7,-1
 524 -12 l 1,4,-1
EndSplineSet
EndChar

StartChar: braceright
Encoding: 125 125 96
Width: 608
Flags: W
LayerCount: 2
Fore
SplineSet
384 128 m 1,0,-1
 384 384 l 1,1,-1
 512 384 l 1,2,-1
 512 512 l 1,3,-1
 384 512 l 1,4,-1
 384 768 l 1,5,-1
 128 768 l 1,6,-1
 128 640 l 1,7,-1
 256 640 l 1,8,-1
 256 256 l 1,9,-1
 128 256 l 1,10,-1
 128 128 l 1,11,-1
 384 128 l 1,0,-1
524 -12 m 1,12,-1
 -12 -12 l 1,13,-1
 -12 396 l 1,14,-1
 116 396 l 1,15,-1
 116 500 l 1,16,-1
 -12 500 l 1,17,-1
 -12 908 l 1,18,-1
 524 908 l 1,19,-1
 524 652 l 1,20,-1
 652 652 l 1,21,-1
 652 244 l 1,22,-1
 524 244 l 1,23,-1
 524 -12 l 1,12,-1
EndSplineSet
EndChar

StartChar: asciitilde
Encoding: 126 126 97
Width: 1120
Flags: W
LayerCount: 2
Fore
SplineSet
896 512 m 1,0,-1
 896 640 l 1,1,-1
 1024 640 l 1,2,-1
 1024 768 l 1,3,-1
 768 768 l 1,4,-1
 768 640 l 1,5,-1
 640 640 l 1,6,-1
 640 768 l 1,7,-1
 256 768 l 1,8,-1
 256 640 l 1,9,-1
 128 640 l 1,10,-1
 128 512 l 1,11,-1
 384 512 l 1,12,-1
 384 640 l 1,13,-1
 512 640 l 1,14,-1
 512 512 l 1,15,-1
 896 512 l 1,0,-1
-12 372 m 1,16,-1
 -12 780 l 1,17,-1
 116 780 l 1,18,-1
 116 908 l 1,19,-1
 1164 908 l 1,20,-1
 1164 500 l 1,21,-1
 1036 500 l 1,22,-1
 1036 372 l 1,23,-1
 -12 372 l 1,16,-1
EndSplineSet
EndChar

StartChar: quoteleft
Encoding: 8216 8216 98
Width: 480
Flags: W
LayerCount: 2
Fore
SplineSet
384 384 m 1,0,-1
 384 640 l 1,1,-1
 256 640 l 1,2,-1
 256 768 l 1,3,-1
 128 768 l 1,4,-1
 128 384 l 1,5,-1
 384 384 l 1,0,-1
0 256 m 1,6,-1
 0 896 l 1,7,-1
 512 896 l 1,8,-1
 512 256 l 1,9,-1
 0 256 l 1,6,-1
EndSplineSet
EndChar

StartChar: quoteright
Encoding: 8217 8217 99
Width: 480
Flags: W
LayerCount: 2
Fore
SplineSet
384 384 m 1,0,-1
 384 768 l 1,1,-1
 128 768 l 1,2,-1
 128 512 l 1,3,-1
 256 512 l 1,4,-1
 256 384 l 1,5,-1
 384 384 l 1,0,-1
0 256 m 1,6,-1
 0 896 l 1,7,-1
 512 896 l 1,8,-1
 512 256 l 1,9,-1
 0 256 l 1,6,-1
EndSplineSet
EndChar

StartChar: quotedblleft
Encoding: 8220 8220 100
Width: 864
Flags: W
LayerCount: 2
Fore
SplineSet
384 384 m 1,0,-1
 384 640 l 1,1,-1
 256 640 l 1,2,-1
 256 768 l 1,3,-1
 128 768 l 1,4,-1
 128 384 l 1,5,-1
 384 384 l 1,0,-1
768 384 m 1,6,-1
 768 640 l 1,7,-1
 640 640 l 1,8,-1
 640 768 l 1,9,-1
 512 768 l 1,10,-1
 512 384 l 1,11,-1
 768 384 l 1,6,-1
0 256 m 1,12,-1
 0 896 l 1,13,-1
 896 896 l 1,14,-1
 896 256 l 1,15,-1
 0 256 l 1,12,-1
EndSplineSet
EndChar

StartChar: quotedblright
Encoding: 8221 8221 101
Width: 864
Flags: W
LayerCount: 2
Fore
SplineSet
384 384 m 1,0,-1
 384 768 l 1,1,-1
 128 768 l 1,2,-1
 128 512 l 1,3,-1
 256 512 l 1,4,-1
 256 384 l 1,5,-1
 384 384 l 1,0,-1
768 384 m 1,6,-1
 768 768 l 1,7,-1
 512 768 l 1,8,-1
 512 512 l 1,9,-1
 640 512 l 1,10,-1
 640 384 l 1,11,-1
 768 384 l 1,6,-1
0 256 m 1,12,-1
 0 896 l 1,13,-1
 896 896 l 1,14,-1
 896 256 l 1,15,-1
 0 256 l 1,12,-1
EndSplineSet
EndChar
